<svg width="92" height="27" viewBox="0 0 92 27" fill="none" xmlns="http://www.w3.org/2000/svg">
<g clip-path="url(#clip0_726_20893)">
<g clip-path="url(#clip1_726_20893)">
<g clip-path="url(#clip2_726_20893)">
<path d="M27.4199 -0.000237159L23.4199 -0.000244141L23.4199 24.9998L27.4199 24.9998L27.4199 -0.000237159Z" fill="white"/>
<path d="M41.4199 17.0248C41.4199 20.8508 38.2029 21.1558 37.2459 21.1558C34.8549 21.1558 34.4199 18.9178 34.4199 17.5678L34.4199 7.99976L30.4199 7.99976L30.4199 17.5478C30.4199 19.9178 31.1639 21.8738 32.4679 23.1778C33.6199 24.3308 35.3459 24.9608 37.2159 24.9608C38.5419 24.9608 40.4199 24.5478 41.4199 23.6348L41.4199 24.9998L45.4199 24.9998L45.4199 7.99978L41.4199 7.99978L41.4199 17.0248Z" fill="white"/>
<path d="M53.4199 1.99977L49.4199 1.99976L49.4199 7.99976L46.4199 7.99976L46.4199 11.9998L49.4199 11.9998L49.4199 24.9998L53.4199 24.9998L53.4199 11.9998L56.4199 11.9998L56.4199 7.99977L53.4199 7.99977L53.4199 1.99977Z" fill="white"/>
<path d="M69.0165 19.916C68.1455 20.699 66.9955 21.133 65.7335 21.133C62.9515 21.133 60.9085 19.09 60.9085 16.285C60.9086 13.48 62.8866 11.523 65.7336 11.523C66.9736 11.523 68.1456 11.936 69.0386 12.719L69.6456 13.241L72.3426 10.545L71.6676 9.936C70.0806 8.503 67.9736 7.69899 65.7326 7.69899C60.7326 7.69898 57.1016 11.307 57.1015 16.264C57.1015 21.2 60.8195 24.937 65.7325 24.937C68.0155 24.937 70.1445 24.133 71.7115 22.677L72.3635 22.068L69.6245 19.374L69.0165 19.916Z" fill="white"/>
<path d="M86.6199 9.48202C85.4679 8.33002 84.1179 7.70002 82.2479 7.70001C80.9219 7.70001 79.4199 8.11301 78.4199 9.02501L78.4199 6.98132e-06L74.4199 0L74.4199 25L78.4199 25L78.4199 15.635C78.4199 11.809 81.1379 11.505 82.0949 11.505C84.4859 11.505 84.4199 13.744 84.4199 15.092L84.4199 25L88.4199 25L88.4199 15.113C88.4199 12.743 87.9249 10.787 86.6199 9.48202Z" fill="white"/>
<path d="M65.6019 13.4373C67.1999 13.4373 68.4949 14.7303 68.4949 16.3293C68.4949 17.9263 67.1999 19.2213 65.6019 19.2213C64.0049 19.2213 62.7109 17.9263 62.7109 16.3293C62.7119 14.7313 64.0059 13.4373 65.6019 13.4373Z" fill="#FF3D2E"/>
<path d="M17.8196 18.72C16.2986 20.285 14.2326 21.133 12.0586 21.133C7.60256 21.133 4.36256 17.633 4.36257 12.829C4.36258 8.00298 7.60259 4.50299 12.0586 4.503C14.2116 4.503 16.2546 5.35 17.7986 6.89401L18.4066 7.50301L21.0806 4.82901L20.4936 4.22001C18.2766 1.93701 15.2766 0.699 12.0586 0.698995C5.49359 0.698983 0.558585 5.91598 0.558573 12.85C0.55856 19.763 5.51555 24.959 12.0586 24.959C15.2986 24.959 18.2986 23.699 20.5156 21.416L21.1026 20.807L18.4506 18.09L17.8196 18.72Z" fill="white"/>
</g>
</g>
</g>
<defs>
<clipPath id="clip0_726_20893">
<rect width="90.2229" height="27" fill="white" transform="translate(0.841797 -0.000244141)"/>
</clipPath>
<clipPath id="clip1_726_20893">
<rect width="88" height="27" fill="white" transform="translate(0.558594 -0.000244141)"/>
</clipPath>
<clipPath id="clip2_726_20893">
<rect width="88" height="27" fill="white" transform="translate(0.558594 -0.000244141)"/>
</clipPath>
</defs>
</svg>
