<svg width="22" height="29" viewBox="0 0 22 29" fill="none" xmlns="http://www.w3.org/2000/svg">
<path d="M5.06102 17.1797L1.01448 25.8093C0.887795 26.0702 1.02193 26.2341 1.44671 26.1521L4.74058 25.4367C4.80577 25.4138 4.87757 25.4193 4.9385 25.4519C4.99942 25.4845 5.04387 25.5412 5.06102 25.6081L6.54401 28.6486C6.6856 28.9765 6.84955 29.0436 6.97623 28.7827L11.2836 19.7507L5.06102 17.1797Z" fill="#DE7818"/>
<path d="M17.5351 17.1797L21.5816 25.8093C21.7158 26.0702 21.5742 26.2341 21.1494 26.1521L17.8555 25.4367C17.7903 25.4147 17.7189 25.4206 17.6582 25.453C17.5975 25.4855 17.5529 25.5416 17.5351 25.6081L16.0521 28.6486C15.9105 28.9765 15.754 29.0436 15.6199 28.7827L11.3125 19.7507L17.5351 17.1797Z" fill="#DE7818"/>
<path d="M10.0821 22.2672C10.0821 22.2747 10.0672 22.2672 10.0523 22.2672C7.7943 22.0169 5.67732 21.0447 4.01604 19.495C4.00859 19.4876 3.98623 19.4801 3.99369 19.4727L4.17999 19.0777C4.18744 19.0628 4.20235 19.1001 4.2098 19.1075C5.80457 20.5905 8.01787 21.522 10.2833 21.7978C10.2908 21.7978 10.3057 21.7978 10.3057 21.8052L10.0821 22.2672Z" fill="#B35454"/>
<path d="M11.2959 21.8496C17.1526 21.8496 21.9003 17.1018 21.9003 11.2451C21.9003 5.38841 17.1526 0.640625 11.2959 0.640625C5.43919 0.640625 0.691406 5.38841 0.691406 11.2451C0.691406 17.1018 5.43919 21.8496 11.2959 21.8496Z" fill="#F0CD0A"/>
<path d="M11.2962 20.3892C16.3462 20.3892 20.44 16.2954 20.44 11.2454C20.44 6.1954 16.3462 2.10156 11.2962 2.10156C6.24618 2.10156 2.15234 6.1954 2.15234 11.2454C2.15234 16.2954 6.24618 20.3892 11.2962 20.3892Z" fill="#D2B309"/>
<path d="M11.5489 20.3556C16.4342 20.3556 20.3946 16.3952 20.3946 11.5098C20.3946 6.62444 16.4342 2.66406 11.5489 2.66406C6.6635 2.66406 2.70312 6.62444 2.70312 11.5098C2.70312 16.3952 6.6635 20.3556 11.5489 20.3556Z" fill="#E3C101"/>
<path fill-rule="evenodd" clip-rule="evenodd" d="M11.2443 15.5556H13.4183V7.00781H11.2443L9.07031 8.48872V10.3606L11.1317 8.96853H11.2443V15.5556Z" fill="#FFF2B5"/>
<path d="M13.7969 3.76562C17.1904 4.57582 19.6128 7.56981 19.6968 11.0577C19.7807 14.5457 17.5052 17.6528 14.1546 18.6253C16.2114 17.0529 17.5751 14.3701 17.5751 11.3221C17.5751 8.1028 16.0549 5.29332 13.7969 3.76562Z" fill="white" fill-opacity="0.2"/>
<path d="M12.5087 22.2641C12.5162 22.2715 12.5311 22.2641 12.5385 22.2641C14.8562 21.9734 16.9875 21.0419 18.5897 19.5067C18.5972 19.4993 18.6195 19.4918 18.6121 19.4844L18.4258 19.0894C18.4183 19.0745 18.4034 19.1118 18.396 19.1192C16.8012 20.6022 14.5804 21.5188 12.3075 21.7946C12.3001 21.7946 12.2852 21.7946 12.2852 21.802L12.5087 22.2641Z" fill="#B35454"/>
</svg>
