<svg width="25" height="33" viewBox="0 0 25 33" fill="none" xmlns="http://www.w3.org/2000/svg">
<rect x="1.61719" y="2.10742" width="16.6079" height="28.787" rx="2.21438" fill="url(#paint0_linear_726_21151)"/>
<path d="M3.5463 1C1.80618 1 0.386719 2.42788 0.386719 4.17059V28.8308C0.386719 30.5735 1.80618 32.0014 3.5463 32.0014H16.1736C17.9138 32.0014 19.3332 30.5735 19.3332 28.8308V27.0803C19.3345 26.987 19.3173 26.8943 19.2825 26.8076C19.2477 26.721 19.196 26.6421 19.1304 26.5756C19.0648 26.5091 18.9867 26.4564 18.9006 26.4203C18.8145 26.3843 18.722 26.3657 18.6286 26.3657C18.5353 26.3657 18.4428 26.3843 18.3567 26.4203C18.2705 26.4564 18.1924 26.5091 18.1269 26.5756C18.0613 26.6421 18.0096 26.721 17.9748 26.8076C17.94 26.8943 17.9227 26.987 17.9241 27.0803V28.8308C17.9241 29.8204 17.1542 30.5922 16.1736 30.5922H3.5463C2.56571 30.5922 1.79587 29.8204 1.79587 28.8308V4.17059C1.79587 3.18096 2.56571 2.40915 3.5463 2.40915H16.1736C17.1542 2.40915 17.9241 3.18096 17.9241 4.17059V6.19625C17.9227 6.28961 17.94 6.38231 17.9748 6.46895C18.0096 6.55559 18.0613 6.63445 18.1269 6.70094C18.1924 6.76743 18.2705 6.82023 18.3567 6.85626C18.4428 6.8923 18.5353 6.91086 18.6286 6.91086C18.722 6.91086 18.8145 6.8923 18.9006 6.85626C18.9867 6.82023 19.0648 6.76743 19.1304 6.70094C19.196 6.63445 19.2477 6.55559 19.2825 6.46895C19.3173 6.38231 19.3345 6.28961 19.3332 6.19625V4.17059C19.3332 2.42788 17.9138 1 16.1736 1H3.5463ZM7.56459 28.2143C7.47205 28.2186 7.38127 28.2411 7.29743 28.2805C7.21359 28.3199 7.13833 28.3754 7.07596 28.4439C7.01358 28.5124 6.96531 28.5925 6.9339 28.6797C6.90249 28.7668 6.88856 28.8593 6.8929 28.9519C6.89724 29.0444 6.91976 29.1352 6.95919 29.219C6.99861 29.3028 7.05416 29.3781 7.12267 29.4405C7.19118 29.5028 7.2713 29.5511 7.35846 29.5825C7.44562 29.6138 7.53811 29.6278 7.63064 29.6234H12.0893C12.1827 29.6247 12.2753 29.6075 12.362 29.5727C12.4486 29.5378 12.5275 29.4862 12.594 29.4206C12.6605 29.355 12.7133 29.2769 12.7493 29.1908C12.7853 29.1047 12.8039 29.0122 12.8039 28.9188C12.8039 28.8255 12.7853 28.733 12.7493 28.6469C12.7133 28.5607 12.6605 28.4826 12.594 28.4171C12.5275 28.3515 12.4486 28.2998 12.362 28.265C12.2753 28.2302 12.1827 28.2129 12.0893 28.2143H7.63064C7.60864 28.2132 7.5866 28.2132 7.56459 28.2143Z" fill="#76D9FF" stroke="#76D9FF" stroke-width="0.221438"/>
<path d="M17.9743 9.85742C17.9563 9.85957 17.9383 9.86257 17.9205 9.8664C17.8322 9.87101 17.7462 9.89559 17.669 9.93825L11.8765 13.2431C11.786 13.293 11.7108 13.366 11.6587 13.4545C11.6066 13.543 11.5794 13.6437 11.5801 13.7461V20.3648C11.581 20.4657 11.609 20.5645 11.661 20.6513C11.7131 20.738 11.7874 20.8096 11.8765 20.8588L17.669 24.1727C17.7575 24.2239 17.8583 24.2509 17.9609 24.2509C18.0635 24.2509 18.1642 24.2239 18.2527 24.1727L24.0453 20.8588C24.1344 20.8096 24.2087 20.738 24.2607 20.6513C24.3128 20.5645 24.3407 20.4657 24.3417 20.3648V13.7461C24.3423 13.6437 24.3152 13.543 24.263 13.4545C24.2109 13.366 24.1357 13.293 24.0453 13.2431L18.2527 9.93825C18.1684 9.88833 18.0726 9.86051 17.9743 9.85742ZM17.9564 11.0968L23.1831 14.0783V20.0326L17.9564 23.0141L12.7386 20.0326V14.7339L17.3816 17.3743V21.2809C17.3805 21.357 17.3946 21.4326 17.423 21.5033C17.4514 21.574 17.4936 21.6383 17.5471 21.6926C17.6005 21.7468 17.6643 21.7899 17.7345 21.8193C17.8048 21.8487 17.8802 21.8638 17.9564 21.8638C18.0326 21.8638 18.108 21.8487 18.1782 21.8193C18.2485 21.7899 18.3122 21.7468 18.3657 21.6926C18.4192 21.6383 18.4614 21.574 18.4898 21.5033C18.5182 21.4326 18.5322 21.357 18.5311 21.2809V17.3922L21.9708 15.4255C22.1029 15.3492 22.1994 15.2236 22.239 15.0763C22.2786 14.9289 22.258 14.7718 22.1818 14.6396C22.1056 14.5075 21.98 14.411 21.8326 14.3714C21.6852 14.3318 21.5282 14.3524 21.396 14.4286L17.9654 16.3864L13.3313 13.7371L17.9564 11.0968Z" fill="white" stroke="white" stroke-width="0.18064"/>
<defs>
<linearGradient id="paint0_linear_726_21151" x1="9.92112" y1="2.10742" x2="9.92112" y2="30.8944" gradientUnits="userSpaceOnUse">
<stop stop-color="#444445"/>
<stop offset="1" stop-color="#050505"/>
</linearGradient>
</defs>
</svg>
