<svg width="68" height="20" viewBox="0 0 68 20" fill="none" xmlns="http://www.w3.org/2000/svg">
<path d="M16.0725 10.0059C16.0572 9.45531 15.8893 8.91923 15.5868 8.45815C15.2851 7.99792 14.8606 7.62974 14.3612 7.39622C14.5512 6.87889 14.5913 6.31895 14.4805 5.77946C14.3689 5.23912 14.1081 4.74139 13.7288 4.34167C13.3282 3.96241 12.8314 3.70247 12.291 3.58997C11.7515 3.47917 11.1916 3.51923 10.6743 3.70929C10.4416 3.209 10.0743 2.78372 9.61318 2.48202C9.1521 2.18031 8.61602 2.01156 8.0646 1.99792C7.51403 2.01241 6.97965 2.17946 6.51942 2.48202C6.0592 2.78457 5.69357 3.20986 5.46261 3.70929C4.94442 3.51923 4.38278 3.47747 3.84158 3.58997C3.30039 3.70077 2.80181 3.96156 2.40124 4.34167C2.02198 4.74224 1.76289 5.24082 1.65295 5.78031C1.54215 6.3198 1.58477 6.87974 1.77567 7.39622C1.27539 7.62974 0.849254 7.99707 0.545845 8.4573C0.242436 8.91753 0.0728338 9.45446 0.0566406 10.0059C0.0736861 10.5573 0.242436 11.0934 0.545845 11.5545C0.849254 12.0147 1.27539 12.3829 1.77567 12.6155C1.58477 13.132 1.54215 13.692 1.65295 14.2314C1.76374 14.7718 2.02198 15.2695 2.40039 15.6701C2.80096 16.0476 3.29869 16.3067 3.83817 16.4184C4.37766 16.5309 4.93761 16.49 5.45494 16.3025C5.68846 16.8019 6.05579 17.2263 6.51687 17.5289C6.9771 17.8306 7.51403 17.9985 8.0646 18.0138C8.61602 18.0002 9.1521 17.8323 9.61318 17.5306C10.0743 17.2289 10.4416 16.8028 10.6743 16.3033C11.189 16.507 11.7532 16.5556 12.2961 16.4431C12.8382 16.3306 13.3359 16.0621 13.7279 15.6701C14.12 15.278 14.3893 14.7803 14.5018 14.2374C14.6143 13.6945 14.5657 13.1303 14.3612 12.6155C14.8606 12.382 15.285 12.0147 15.5876 11.5536C15.8893 11.0934 16.0572 10.5564 16.0725 10.0059ZM6.92425 13.2871L4.00181 10.3655L5.1038 9.25588L6.86971 11.0218L10.6197 6.93599L11.7677 7.99792L6.92425 13.2871Z" fill="#1D9BF0"/>
</svg>
