<svg width="34" height="20" viewBox="0 0 34 20" fill="none" xmlns="http://www.w3.org/2000/svg">
<path d="M18.3294 7.08398C18.3294 7.77565 17.7362 8.33398 17.0013 8.33398C16.2664 8.33398 15.6732 7.77565 15.6732 7.08398C15.6732 6.39232 16.2664 5.83398 17.0013 5.83398C17.7362 5.83398 18.3294 6.39232 18.3294 7.08398ZM17.8867 14.1673V10.0007H16.1159V14.1673H17.8867ZM17.0013 18.5423C22.0128 18.5423 26.0768 14.7173 26.0768 10.0007C26.0768 5.28398 22.0128 1.45898 17.0013 1.45898C11.9898 1.45898 7.92578 5.28398 7.92578 10.0007C7.92578 14.7173 11.9898 18.5423 17.0013 18.5423ZM24.306 10.0007C24.306 13.8006 21.0388 16.8756 17.0013 16.8756C12.9638 16.8756 9.69661 13.8006 9.69661 10.0007C9.69661 6.20065 12.9638 3.12565 17.0013 3.12565C21.0388 3.12565 24.306 6.20065 24.306 10.0007Z" fill="#536471"/>
</svg>
