<svg width="14" height="14" viewBox="0 0 14 14" fill="none" xmlns="http://www.w3.org/2000/svg">
<path fill-rule="evenodd" clip-rule="evenodd" d="M13.2702 6.71908C13.2702 10.2853 10.3791 13.1764 6.81283 13.1764C3.24661 13.1764 0.355469 10.2853 0.355469 6.71908C0.355469 3.15286 3.24661 0.261719 6.81283 0.261719C10.3791 0.261719 13.2702 3.15286 13.2702 6.71908ZM8.48697 3.1771C8.48697 3.73079 8.03792 4.17922 7.48485 4.17922C6.93115 4.17922 6.48273 3.73079 6.48273 3.1771C6.48273 2.62341 6.93115 2.17498 7.48485 2.17498C8.03792 2.17498 8.48697 2.62341 8.48697 3.1771ZM5.4807 5.57749L7.66871 5.25798C7.78331 5.24117 7.87674 5.34829 7.84435 5.45977L6.55451 9.92093C6.49845 10.2199 7.23774 9.80509 7.74596 9.48932C7.88174 9.40462 8.03619 9.54039 7.95709 9.67928C7.55725 10.3812 6.71581 11.5521 5.70563 11.1946C4.68919 10.8352 4.94455 10.0162 5.25221 9.03162C5.29954 8.8784 5.34874 8.72208 5.39421 8.56202C5.50694 8.16652 5.65019 7.76978 5.77661 7.41914C6.03009 6.71661 6.2157 6.20154 5.95287 6.26755C5.64085 6.3454 5.25532 6.05828 5.36431 5.67213C5.37864 5.61981 5.42652 5.58496 5.4807 5.57749Z" fill="#C8FFFF"/>
</svg>
